<?xml version="1.0" standalone="no"?>
<!DOCTYPE svg PUBLIC "-//W3C//DTD SVG 20010904//EN"
 "http://www.w3.org/TR/2001/REC-SVG-20010904/DTD/svg10.dtd">
<svg version="1.0" xmlns="http://www.w3.org/2000/svg"
 width="24px" height="17.65px" viewBox="0 0 700 2" fill="none"
 preserveAspectRatio="xMidYMid meet">

<g transform="translate(24,200) scale(0.100000,-0.100000)"
fill="#000000" stroke="none">
<path d="M2692 3663 c-148 -47 -189 -92 -369 -406 -38 -65 -76 -131 -86 -148
-9 -16 -45 -78 -78 -137 -34 -59 -69 -120 -79 -137 -59 -101 -110 -194 -110
-203 0 -10 53 -44 132 -87 120 -64 177 -100 170 -107 -8 -8 -121 -23 -297 -38
-66 -6 -156 -17 -200 -25 -71 -13 -264 -35 -301 -35 -8 0 -14 -4 -14 -9 0 -9
46 -37 181 -115 45 -25 50 -31 44 -55 -3 -14 -17 -42 -29 -61 -39 -58 -149
-246 -186 -318 -34 -65 -35 -70 -35 -182 0 -106 2 -120 28 -174 16 -32 49 -90
73 -127 24 -38 44 -72 44 -75 0 -3 17 -36 39 -72 53 -91 70 -122 172 -304 137
-243 198 -338 258 -398 67 -66 146 -113 219 -129 56 -12 1016 -16 1046 -5 14
5 16 31 16 186 0 117 3 177 10 173 10 -6 118 -145 157 -203 13 -18 27 -38 33
-45 6 -7 33 -41 60 -77 27 -36 54 -70 60 -77 6 -7 20 -27 33 -46 36 -52 99
-135 134 -175 l32 -37 1 148 0 147 246 0 c260 0 312 6 376 47 21 12 41 23 46
23 13 0 108 103 124 135 23 46 67 124 105 183 18 29 33 55 33 59 0 3 25 45 55
93 30 48 55 91 55 95 0 5 11 23 25 41 14 18 29 43 35 56 5 13 14 30 20 38 43
67 111 186 137 240 81 167 78 156 78 280 0 108 -2 119 -31 181 -18 36 -52 99
-77 140 -24 41 -73 124 -107 184 -86 151 -148 258 -248 425 -11 19 -30 54 -42
78 -12 23 -29 42 -37 42 -8 0 -52 -22 -98 -50 -46 -27 -85 -50 -89 -50 -3 0
-27 -13 -53 -30 -65 -42 -78 -40 -57 8 9 20 34 80 56 132 73 176 139 335 153
365 86 192 94 215 75 215 -12 0 -134 -68 -202 -112 -14 -10 -29 -18 -31 -18
-3 0 -32 46 -63 103 -180 321 -231 387 -344 441 l-65 31 -575 2 -575 2 -83
-26z m586 -120 l181 -6 -28 -41 c-15 -23 -56 -90 -90 -151 -35 -60 -72 -122
-82 -137 -11 -15 -19 -29 -19 -31 0 -3 -30 -56 -66 -118 -110 -190 -215 -372
-239 -414 -12 -22 -46 -80 -75 -130 -30 -49 -62 -107 -73 -127 -10 -21 -24
-38 -29 -38 -8 0 -150 78 -273 150 -65 38 -232 134 -267 153 -21 12 -38 28
-38 36 1 9 14 39 30 66 16 28 44 77 63 110 47 83 69 121 110 190 19 33 50 87
68 120 17 33 54 95 80 138 27 43 49 82 49 86 0 4 21 27 48 53 97 94 198 108
650 91z m644 -27 c84 -39 100 -58 186 -216 19 -36 46 -82 59 -102 12 -21 23
-40 23 -43 0 -3 19 -37 43 -76 23 -38 56 -96 73 -127 l32 -57 -23 -50 c-22
-48 -50 -113 -111 -259 -30 -71 -49 -87 -95 -80 -13 2 -80 13 -148 24 -68 11
-145 20 -170 20 -45 0 -48 2 -69 43 -12 23 -27 51 -34 62 -6 11 -15 27 -19 35
-4 8 -25 44 -47 80 -100 167 -182 308 -198 342 -20 43 -15 60 49 162 23 36 53
84 67 107 53 87 178 158 277 159 35 0 70 -8 105 -24z m-560 -603 c24 -42 55
-97 70 -122 15 -25 37 -64 49 -86 12 -22 30 -51 41 -64 18 -24 18 -24 -9 -41
-47 -28 -126 -73 -165 -93 -74 -37 -68 -43 59 -62 65 -9 129 -18 142 -20 13
-3 63 -7 110 -11 47 -3 153 -17 235 -30 81 -13 164 -24 183 -24 31 0 34 -2 22
-16 -7 -9 -32 -26 -55 -38 -82 -41 -200 -108 -224 -126 -26 -20 -26 -22 22
-100 11 -19 32 -55 45 -80 26 -50 39 -71 68 -115 11 -16 28 -46 38 -65 10 -19
28 -53 41 -75 13 -22 49 -85 81 -140 31 -55 67 -116 78 -135 11 -19 31 -55 45
-80 13 -25 28 -49 33 -54 5 -6 9 -16 9 -23 0 -11 -42 -13 -212 -11 l-213 3 -3
144 -3 144 -29 -28 c-17 -16 -30 -35 -30 -42 0 -7 -3 -13 -7 -13 -5 -1 -28
-27 -51 -58 -74 -96 -251 -333 -300 -401 -26 -35 -59 -77 -74 -95 l-27 -31 -1
188 0 187 -37 0 c-21 1 -241 0 -490 0 -419 -1 -488 3 -453 25 6 3 19 23 29 43
25 50 167 302 174 309 5 4 88 -39 215 -114 24 -14 45 -24 47 -22 2 2 -5 22
-16 43 -10 22 -19 43 -19 48 0 5 -9 28 -20 51 -12 23 -33 71 -47 107 -14 36
-39 93 -54 127 -16 34 -29 64 -29 67 0 3 -11 30 -25 60 -14 30 -25 58 -25 63
0 4 -11 28 -24 53 -13 25 -29 63 -36 85 -7 22 -17 46 -23 53 -21 26 17 10 129
-55 64 -38 128 -76 142 -85 15 -9 32 -17 38 -17 10 -1 74 89 74 104 0 5 11 23
25 41 14 18 25 36 25 41 0 4 23 45 50 91 28 46 50 85 50 87 0 1 19 34 42 71
37 61 156 266 211 364 27 49 28 50 32 50 2 0 23 -34 47 -77z m1268 -525 c19
-35 50 -90 70 -123 19 -33 41 -71 48 -85 6 -14 30 -54 52 -89 22 -34 40 -65
40 -68 0 -3 25 -45 55 -94 30 -49 55 -91 55 -94 0 -3 20 -41 45 -84 41 -71 45
-84 45 -144 0 -49 -7 -82 -27 -129 -39 -92 -57 -114 -121 -145 -56 -27 -60
-28 -242 -28 l-185 0 -50 90 c-27 50 -57 101 -66 115 -43 69 -293 500 -319
549 -25 51 -21 59 53 99 58 32 79 44 174 100 39 23 82 46 95 52 12 5 55 30 93
55 39 24 75 44 80 45 6 0 21 9 35 20 14 11 28 20 31 20 3 0 21 -28 39 -62z
m-2284 -128 c7 -14 32 -70 55 -125 23 -55 47 -113 54 -130 46 -107 46 -102 25
-148 -11 -23 -29 -55 -39 -72 -10 -16 -43 -73 -73 -125 -30 -52 -93 -160 -140
-240 -80 -136 -197 -343 -255 -448 -14 -26 -29 -51 -33 -56 -5 -5 -25 22 -44
60 -20 38 -48 89 -62 114 -14 25 -44 77 -66 115 -22 39 -72 124 -111 189 -68
115 -71 122 -75 196 -5 87 -3 93 135 318 35 57 63 105 63 107 0 2 23 40 50 85
28 45 50 85 50 89 0 4 10 17 23 28 22 21 64 29 312 62 97 12 114 10 131 -19z
m2480 -1122 c-9 -13 -24 -39 -34 -58 -16 -30 -186 -319 -212 -360 -5 -8 -23
-40 -40 -71 -43 -78 -84 -125 -135 -154 l-43 -26 -331 -1 -332 -1 -57 69 c-32
38 -82 103 -110 144 -29 41 -62 87 -73 101 l-21 26 67 89 c36 49 94 126 128
171 l62 82 565 3 c311 2 569 4 574 6 5 1 1 -8 -8 -20z m-1646 -328 l0 -340
-417 -1 c-230 -1 -434 0 -453 1 -52 2 -111 41 -177 116 l-58 67 1 96 c0 92 2
99 38 166 35 64 87 155 123 213 l13 22 465 0 465 0 0 -340z"/>
</g>
</svg>
